<?xml version="1.0" encoding="UTF-8" standalone="no"?>
<svg
   viewBox="0 0 383.90057 383.89999"
   version="1.1"
   id="svg4"
   sodipodi:docname="linkedin.svg"
   width="383.90057"
   height="383.89999"
   inkscape:version="1.1.1 (3bf5ae0d25, 2021-09-20, custom)"
   xmlns:inkscape="http://www.inkscape.org/namespaces/inkscape"
   xmlns:sodipodi="http://sodipodi.sourceforge.net/DTD/sodipodi-0.dtd"
   xmlns="http://www.w3.org/2000/svg"
   xmlns:svg="http://www.w3.org/2000/svg">
  <defs
     id="defs8" />
  <sodipodi:namedview
     id="namedview6"
     pagecolor="#ffffff"
     bordercolor="#666666"
     borderopacity="1.0"
     inkscape:pageshadow="2"
     inkscape:pageopacity="0.0"
     inkscape:pagecheckerboard="0"
     showgrid="false"
     fit-margin-top="0"
     fit-margin-left="0"
     fit-margin-right="0"
     fit-margin-bottom="0"
     inkscape:zoom="1.4199219"
     inkscape:cx="31.339752"
     inkscape:cy="191.55983"
     inkscape:window-width="1920"
     inkscape:window-height="1057"
     inkscape:window-x="0"
     inkscape:window-y="23"
     inkscape:window-maximized="1"
     inkscape:current-layer="svg4" />
  <path
     d="M 353.2,0 H 32.8 C 15.3,0 0,12.6 0,29.9 V 351 c 0,17.4 15.3,32.9 32.8,32.9 h 320.3 c 17.6,0 30.8,-15.6 30.8,-32.9 V 29.9 C 384,12.6 370.7,0 353.2,0 Z M 119,320 H 64 V 149 h 55 z M 93.4,123 H 93 C 75.4,123 64,109.9 64,93.5 64,76.8 75.7,64 93.7,64 c 18,0 29,12.7 29.4,29.5 0,16.4 -11.4,29.5 -29.7,29.5 z M 320,320 h -55 v -93.5 c 0,-22.4 -8,-37.7 -27.9,-37.7 -15.2,0 -24.2,10.3 -28.2,20.3 -1.5,3.6 -1.9,8.5 -1.9,13.5 V 320 H 152 V 149 h 55 v 23.8 c 8,-11.4 20.5,-27.8 49.6,-27.8 36.1,0 63.4,23.8 63.4,75.1 z"
     id="path2" />
</svg>
